<?xml version="1.0" standalone="no"?>
<!DOCTYPE svg PUBLIC "-//W3C//DTD SVG 20010904//EN"
 "http://www.w3.org/TR/2001/REC-SVG-20010904/DTD/svg10.dtd">
<svg version="1.0" xmlns="http://www.w3.org/2000/svg"
 width="60.000000pt" height="60.000000pt" viewBox="0 0 60.000000 60.000000"
 preserveAspectRatio="xMidYMid meet">

<g transform="translate(0.000000,60.000000) scale(0.100000,-0.100000)"
fill="#000000" stroke="none">
<path d="M226 591 c-3 -4 -19 -11 -34 -14 -42 -8 -135 -97 -156 -149 -10 -24
-22 -50 -27 -60 -16 -32 -3 -131 25 -188 47 -94 97 -136 195 -166 60 -18 105
-17 161 2 122 43 210 161 210 285 0 33 -4 67 -9 77 -4 9 -17 35 -27 57 -45 95
-160 165 -270 165 -34 0 -65 -4 -68 -9z m190 -67 c65 -34 77 -46 108 -105 19
-38 26 -66 26 -109 0 -33 -4 -61 -10 -65 -5 -3 -26 4 -47 15 -43 23 -100 26
-128 6 -35 -23 -76 -25 -114 -5 -46 24 -101 24 -148 -1 -20 -10 -41 -17 -46
-13 -16 9 -1 125 21 168 23 46 61 84 112 113 54 32 162 30 226 -4z m-184 -304
c54 -26 93 -25 144 2 l41 22 57 -25 c30 -13 56 -27 56 -31 0 -4 -7 -14 -16
-22 -14 -15 -18 -15 -43 0 -34 20 -87 13 -124 -16 -33 -26 -59 -25 -103 5 -42
29 -73 31 -114 10 -27 -14 -30 -14 -44 6 -14 20 -12 23 27 44 53 29 68 30 119
5z m8 -114 c32 -28 70 -28 117 -1 54 30 106 34 101 8 -2 -10 -23 -28 -48 -41
-38 -20 -56 -23 -115 -19 -69 4 -155 36 -155 57 0 31 62 28 100 -4z"/>
<path d="M287 468 c-10 -23 -24 -37 -41 -42 -33 -8 -33 -22 -1 -30 14 -4 32
-20 41 -37 l16 -31 19 32 c11 18 29 34 40 37 26 7 24 18 -6 31 -15 7 -32 26
-39 44 l-14 32 -15 -36z"/>
</g>
</svg>
