<svg width="61" height="60" viewBox="0 0 61 60" fill="none" xmlns="http://www.w3.org/2000/svg">
<rect width="60" height="60" transform="translate(0.828125)" fill="white"/>
<path d="M31.161 17.7416C31.0773 17.338 30.5015 17.3363 30.4154 17.7394L29.8872 20.2143C29.6459 21.3445 28.7531 22.2215 27.6188 22.4425L25.3608 22.8825C24.9521 22.9621 24.9492 23.5458 25.357 23.6296L27.6443 24.0994C28.7653 24.3296 29.6441 25.2011 29.8837 26.3202L30.4063 28.7614C30.4924 29.1634 31.0662 29.1629 31.1515 28.7608L31.6687 26.323C31.9065 25.2024 32.7851 24.3289 33.907 24.0975L36.2041 23.6238C36.6121 23.5396 36.6083 22.9555 36.1993 22.8766L33.9471 22.4421C32.8044 22.2216 31.9063 21.3358 31.67 20.1963L31.161 17.7416Z" fill="black"/>
<path fill-rule="evenodd" clip-rule="evenodd" d="M12.9656 31.7497L12.9654 31.7496C13.1003 33.0931 13.3838 34.3928 13.7993 35.632L13.7994 35.632C14.3692 37.3317 15.1872 38.9176 16.2104 40.3465C16.8011 41.1714 17.46 41.944 18.1792 42.6561C21.4122 45.8573 25.8597 47.8343 30.7689 47.8343C40.6514 47.8343 48.6626 39.823 48.6626 29.9406C48.6626 20.0582 40.6514 12.0469 30.7689 12.0469C20.8865 12.0469 12.8752 20.0582 12.8752 29.9406C12.8752 30.5512 12.9058 31.1547 12.9656 31.7497ZM15.924 33.5151C15.6489 32.3685 15.5032 31.1716 15.5032 29.9406C15.5032 21.5095 22.3379 14.6748 30.7689 14.6748C39.2 14.6748 46.0347 21.5095 46.0347 29.9406C46.0347 31.1683 45.8898 32.3622 45.6161 33.5061C45.5038 33.5202 45.3879 33.5276 45.2672 33.528C44.1077 33.5314 43.3679 33.0809 42.3294 32.4168L42.2782 32.3841C41.2506 31.7266 39.9288 30.8809 37.943 30.8929C35.9852 30.9047 34.6793 31.744 33.6669 32.3948L33.6136 32.429C32.5877 33.088 31.8655 33.5279 30.7417 33.5279C29.5291 33.5279 28.7909 33.075 27.7936 32.4261L27.7191 32.3776C26.7211 31.7275 25.4399 30.8929 23.477 30.8929C21.5048 30.8929 20.1952 31.732 19.1758 32.3852L19.1256 32.4174C18.0969 33.0762 17.3625 33.5245 16.2083 33.528C16.1106 33.5282 16.016 33.5239 15.924 33.5151ZM20.5091 41.2446C23.2196 43.7062 26.8191 45.2063 30.7689 45.2063C34.7005 45.2063 38.2849 43.7201 40.9911 41.2788C40.9494 41.2465 40.9084 41.2145 40.8679 41.183L40.7924 41.1242C39.7316 40.2989 39.0325 39.7979 37.959 39.8043C36.8982 39.8107 36.2033 40.3127 35.156 41.1324C35.1308 41.1522 35.1053 41.1721 35.0796 41.1922C34.0936 41.9651 32.7566 43.0131 30.7417 43.0131C28.6264 43.0131 27.2798 41.9458 26.2791 41.1527L26.2385 41.1205C25.1975 40.2957 24.5366 39.8043 23.477 39.8043C22.4092 39.8043 21.7157 40.3033 20.6647 41.1231L20.5902 41.1813C20.5634 41.2022 20.5364 41.2234 20.5091 41.2446ZM42.8167 39.317C43.5668 38.3544 44.2042 37.2997 44.7089 36.1726C43.0378 36.036 41.8743 35.2915 40.9503 34.7002L40.8928 34.6634C39.856 34.0004 39.117 33.5525 37.959 33.5595C36.8133 33.5664 36.0786 34.0149 35.0548 34.6726L34.9984 34.7089C33.9884 35.3581 32.687 36.1946 30.7417 36.1946C28.6957 36.1946 27.384 35.3411 26.3592 34.6743L26.3393 34.6613C25.323 34.0001 24.6224 33.5595 23.477 33.5595C22.3242 33.5595 21.5907 34.0053 20.5637 34.663L20.5072 34.6992C19.5992 35.281 18.4596 36.0114 16.8258 36.1653C17.3242 37.2801 17.9524 38.3241 18.6912 39.2783C18.7986 39.1964 18.9094 39.1104 19.0245 39.0206L19.0943 38.9661C20.0902 38.1883 21.4354 37.1377 23.477 37.1377C25.5107 37.1377 26.8279 38.1836 27.803 38.9578L27.8063 38.9604C27.836 38.984 27.8654 39.0073 27.8945 39.0304C28.9147 39.8387 29.614 40.3465 30.7417 40.3465C31.7799 40.3465 32.4618 39.8549 33.5124 39.0326L33.5834 38.9769C34.5732 38.2013 35.9148 37.15 37.943 37.1377C39.9978 37.1254 41.3551 38.1825 42.359 38.9643L42.4297 39.0194C42.564 39.1239 42.6925 39.2232 42.8167 39.317Z" fill="black"/>
</svg>
